<?xml version="1.0" encoding="UTF-8"?>
<svg version="1.1" xmlns="http://www.w3.org/2000/svg" width="1920" height="1080">
<path d="M0 0 C21.72369105 13.11619082 35.6575216 32.00666486 41.96118164 56.62597656 C53.63910619 105.09027625 38.47105602 155.44366991 18.27734375 199.375 C17.82375488 200.36193848 17.37016602 201.34887695 16.90283203 202.36572266 C-33.02147095 310.15564657 -33.02147095 310.15564657 -82.72265625 332.375 C-67.96968783 329.84798257 -53.54412325 325.14196078 -40.65625 317.44140625 C-38.72265625 316.375 -38.72265625 316.375 -36.72265625 316.375 C-37.83149389 324.25142342 -39.47712962 331.57685569 -42.16015625 339.0625 C-42.67642578 340.52139648 -42.67642578 340.52139648 -43.203125 342.00976562 C-58.05418273 383.03319799 -76.91029286 414.84364567 -115.72265625 436.375 C-115.72265625 436.705 -115.72265625 437.035 -115.72265625 437.375 C-102.45751852 433.5363704 -90.66744105 428.08154676 -78.59179688 421.40307617 C-77.3159096 420.70130484 -76.02507595 420.02620985 -74.72265625 419.375 C-77.40680438 439.12003488 -100.8336406 463.54355007 -115.72265625 475.375 C-123.34320515 481.07136031 -131.24457454 486.04251336 -139.72265625 490.375 C-130.13002814 489.19624485 -121.6301482 485.93026794 -112.72265625 482.375 C-111.74039062 481.983125 -110.758125 481.59125 -109.74609375 481.1875 C-108.74449219 480.7853125 -108.74449219 480.7853125 -107.72265625 480.375 C-108.29911494 485.27821633 -109.328967 489.6423411 -110.953125 494.30078125 C-111.17969284 494.95280518 -111.40626068 495.6048291 -111.63969421 496.27661133 C-112.38779337 498.41676341 -113.14756745 500.55247063 -113.91015625 502.6875 C-114.17387024 503.42986908 -114.43758423 504.17223816 -114.70928955 504.93710327 C-124.40460618 532.15160124 -135.61728761 558.62675941 -148.72265625 584.375 C-149.47579102 585.85830811 -149.47579102 585.85830811 -150.24414062 587.37158203 C-160.63736334 607.62726542 -173.08980797 626.91324054 -187.72265625 644.375 C-188.20686035 644.95926758 -188.69106445 645.54353516 -189.18994141 646.14550781 C-198.79006157 657.70263482 -208.90946996 668.03977759 -220.72265625 677.375 C-221.79388683 678.24757203 -222.86416713 679.12131172 -223.93359375 679.99609375 C-250.63335217 701.65480149 -281.34953629 717.1354139 -314.72265625 725.375 C-298.83457461 730.25363054 -275.19584451 727.23905966 -259.72265625 722.375 C-259.03365234 722.16069336 -258.34464844 721.94638672 -257.63476562 721.72558594 C-235.94524861 714.7430657 -218.06498094 702.02485331 -201.72265625 686.375 C-201.39265625 687.035 -201.06265625 687.695 -200.72265625 688.375 C-201.86451408 690.96033849 -203.06900063 693.39390351 -204.41015625 695.875 C-204.81516357 696.62821533 -205.2201709 697.38143066 -205.63745117 698.1574707 C-224.11169925 731.82451725 -250.88622139 757.66890362 -286.72265625 772.375 C-270.86009165 772.95298818 -257.46681722 770.68630404 -245.28515625 759.6875 C-244.48207031 758.92050781 -243.67898438 758.15351562 -242.8515625 757.36328125 C-240.72265625 755.375 -240.72265625 755.375 -237.72265625 753.375 C-241.73310038 766.91541702 -250.83953384 777.65504234 -260.72265625 787.375 C-261.55796875 788.20902344 -262.39328125 789.04304687 -263.25390625 789.90234375 C-293.07031334 818.21824983 -337.62762308 822.80873022 -376.72265625 822.375 C-376.24691162 822.88603271 -375.77116699 823.39706543 -375.28100586 823.92358398 C-363.7439257 836.44119047 -359.42419965 849.78495181 -357.72265625 866.375 C-358.38265625 866.375 -359.04265625 866.375 -359.72265625 866.375 C-360.18414063 865.51519531 -360.645625 864.65539062 -361.12109375 863.76953125 C-367.77918582 851.60320777 -374.958858 840.19347532 -386.72265625 832.375 C-387.71265625 831.715 -388.70265625 831.055 -389.72265625 830.375 C-386.84065839 820.37094267 -383.45819161 810.53848632 -380.09765625 800.6875 C-379.76941864 799.72517456 -379.44118103 798.76284912 -379.10299683 797.7713623 C-364.53032582 755.11840782 -348.66924531 712.93456539 -332.75688457 670.76782608 C-331.30647379 666.92404779 -329.85852383 663.07935408 -328.41259766 659.23388672 C-307.54194085 603.74431085 -285.0956113 548.85442426 -261.72265625 494.375 C-261.41994812 493.66903687 -261.11723999 492.96307373 -260.80535889 492.23571777 C-252.63847483 473.19525607 -244.27463492 454.24573975 -235.72265625 435.375 C-235.41779297 434.70210938 -235.11292969 434.02921875 -234.79882812 433.3359375 C-212.50784217 384.15788601 -189.66844494 335.08395749 -164.32226562 287.39453125 C-162.76347926 284.45206029 -161.21293879 281.50539738 -159.66448975 278.55747986 C-151.09666334 262.24834738 -142.42334555 246.02968723 -133.24951172 230.05078125 C-131.69370349 227.32426091 -130.16030801 224.58622226 -128.6328125 221.84375 C-120.97224757 208.1128182 -112.9032778 194.65893976 -104.6920929 181.25378418 C-102.67745025 177.95847904 -100.69389069 174.64771311 -98.74609375 171.3125 C-91.46768911 158.87146067 -83.52039216 146.91502636 -75.4621582 134.9699707 C-70.68468856 127.88025891 -65.99402641 120.78714884 -61.72265625 113.375 C-101.87714079 165.77356032 -135.97039314 223.17981993 -167.08203125 281.31591797 C-168.76619561 284.45618276 -170.46216726 287.58984753 -172.16015625 290.72265625 C-190.93716819 325.45206899 -208.83846351 360.68783478 -225.72265625 396.375 C-226.55772705 398.13384521 -226.55772705 398.13384521 -227.40966797 399.92822266 C-235.8008926 417.60699172 -243.90894778 435.39593816 -251.81546021 453.29653931 C-252.1457724 454.04430634 -252.47608459 454.79207336 -252.81640625 455.5625 C-253.14486542 456.30615814 -253.47332458 457.04981628 -253.81173706 457.81600952 C-256.80315962 464.57828698 -259.85987667 471.31004639 -262.92263794 478.04022217 C-270.79988089 495.36775974 -278.31699916 512.84139051 -285.72265625 530.375 C-286.08018982 531.22028259 -286.43772339 532.06556519 -286.80609131 532.9364624 C-325.48647451 624.40789729 -360.71454261 717.25827212 -420.73657227 887.5665741 C-422.84479066 893.80101245 -424.97525663 900.0272134 -427.12890625 906.24609375 C-434.503468 927.56523652 -441.57564827 948.97985186 -448.53515625 970.4375 C-448.77032204 971.16224392 -449.00548782 971.88698784 -449.24777985 972.6336937 C-454.55777172 989.00608794 -459.78229292 1005.39944291 -464.73828125 1021.8828125 C-465.03283235 1022.86120622 -465.03283235 1022.86120622 -465.33333397 1023.85936546 C-467.36423871 1030.60857858 -469.37516068 1037.36330275 -471.35668945 1044.12719727 C-472.0007589 1046.29705406 -472.6448802 1048.46689546 -473.2890625 1050.63671875 C-473.565224 1051.59921539 -473.8413855 1052.56171204 -474.12591553 1053.55337524 C-476.81244985 1062.55036752 -480.38550156 1071.29226096 -488.72265625 1076.375 C-492.16015625 1077.25 -492.16015625 1077.25 -494.72265625 1077.375 C-493.38624522 1071.02953422 -491.75719556 1064.86947352 -489.84375 1058.67578125 C-489.5603476 1057.74914673 -489.27694519 1056.82251221 -488.98495483 1055.86779785 C-488.04721908 1052.80649746 -487.10399958 1049.74692244 -486.16015625 1046.6875 C-485.48719199 1044.49895169 -484.81425974 1042.31039353 -484.14135742 1040.12182617 C-476.45785721 1015.16761096 -468.63760921 990.25670636 -460.72265625 965.375 C-460.33787109 964.16501343 -459.95308594 962.95502686 -459.55664062 961.70837402 C-449.59365596 930.40010641 -439.39342319 899.17957233 -428.84765625 868.0625 C-428.61277622 867.36929531 -428.37789619 866.67609062 -428.13589859 865.96187973 C-423.0879291 851.06810935 -418.01773642 836.18311471 -412.72265625 821.375 C-432.60023377 820.85690851 -449.85064441 824.2196542 -468.72265625 830.375 C-469.88112061 830.75205078 -469.88112061 830.75205078 -471.06298828 831.13671875 C-475.29301838 832.52019388 -479.51208364 833.93319786 -483.72265625 835.375 C-483.72265625 834.715 -483.72265625 834.055 -483.72265625 833.375 C-482.40014648 832.18920898 -482.40014648 832.18920898 -480.53125 830.87109375 C-479.84135986 830.38205566 -479.15146973 829.89301758 -478.44067383 829.38916016 C-477.68810303 828.8688623 -476.93553223 828.34856445 -476.16015625 827.8125 C-475.39018311 827.2767334 -474.62020996 826.7409668 -473.8269043 826.18896484 C-459.72973824 816.47626495 -445.76995781 809.34690112 -429.72265625 803.375 C-430.69203125 802.93671875 -431.66140625 802.4984375 -432.66015625 802.046875 C-440.42341192 798.41874721 -447.54578918 794.39988364 -454.41015625 789.25 C-455.06822266 788.75983398 -455.72628906 788.26966797 -456.40429688 787.76464844 C-460.43299154 784.65685766 -463.603155 781.39516031 -466.72265625 777.375 C-466.160625 777.53355469 -465.59859375 777.69210937 -465.01953125 777.85546875 C-461.92553817 778.71438401 -458.82454393 779.54500907 -455.72265625 780.375 C-454.60479736 780.68026611 -454.60479736 780.68026611 -453.46435547 780.99169922 C-440.69021841 784.46017352 -429.01179874 786.43450362 -415.72265625 786.375 C-422.70707789 749.55912915 -437.11470702 717.14270302 -459.17578125 686.7109375 C-460.72265625 684.375 -460.72265625 684.375 -460.72265625 682.375 C-446.44532583 687.56440943 -422.69345066 704.43341118 -415.72265625 718.375 C-413.82599283 716.47833658 -414.22902193 713.16394908 -413.99609375 710.625 C-413.85489426 709.15566801 -413.7126718 707.68643407 -413.56958008 706.21728516 C-413.49365631 705.43089661 -413.41773254 704.64450806 -413.33950806 703.83428955 C-405.09622323 620.01178464 -379.94870091 538.48958015 -319.72265625 403.375 C-319.36971497 402.6581604 -319.01677368 401.9413208 -318.65313721 401.20275879 C-309.80759094 383.2469956 -300.87511075 365.37242552 -291.1171875 347.890625 C-289.66463001 345.27032521 -288.23747359 342.63750098 -286.81640625 340 C-280.0181385 327.39069022 -272.91299144 314.9864351 -265.64257812 302.64404297 C-263.61201898 299.18661839 -261.59574413 295.72115413 -259.58203125 292.25390625 C-251.13532958 277.72612164 -242.49044044 263.35276703 -233.48730469 249.16015625 C-231.80000718 246.49708349 -230.12336248 243.82760547 -228.44921875 241.15625 C-210.10888902 211.99364624 -190.72370196 183.42162765 -170.72265625 155.375 C-170.21798828 154.66553223 -169.71332031 153.95606445 -169.19335938 153.22509766 C-161.52537455 142.46042665 -153.61099731 131.90275364 -145.5703125 121.4140625 C-142.69438436 117.65939824 -139.85814227 113.87836397 -137.04418945 110.07714844 C-130.72101349 101.54379569 -124.02386406 93.35853623 -117.22949219 85.19775391 C-115.3190813 82.88681294 -113.45465326 80.54149414 -111.59765625 78.1875 C-104.15716865 68.83919507 -96.26544458 59.85600235 -88.171875 51.0703125 C-86.87044636 49.63811831 -85.57389828 48.20075986 -84.31738281 46.72900391 C-79.08928686 40.61465467 -73.47590032 34.90757513 -67.80029297 29.21240234 C-66.11473287 27.51717456 -64.44020078 25.81153817 -62.765625 24.10546875 C-46.60463033 7.78560765 -24.39096663 -12.0078605 0 0 Z M-54.72265625 102.375 C-53.72265625 104.375 -53.72265625 104.375 -53.72265625 104.375 Z M-56.72265625 105.375 C-56.72265625 108.375 -56.72265625 108.375 -56.72265625 108.375 Z M-58.72265625 108.375 C-59.38265625 109.695 -60.04265625 111.015 -60.72265625 112.375 C-59.73265625 111.715 -58.74265625 111.055 -57.72265625 110.375 C-58.05265625 109.715 -58.38265625 109.055 -58.72265625 108.375 Z " fill="#F59726" transform="translate(1148.72265625,2.625)"/>
<path d="M0 0 C-1.10883764 7.87642342 -2.75447337 15.20185569 -5.4375 22.6875 C-5.95376953 24.14639648 -5.95376953 24.14639648 -6.48046875 25.63476562 C-21.33152648 66.65819799 -40.18763661 98.46864567 -79 120 C-79 120.33 -79 120.66 -79 121 C-65.73486227 117.1613704 -53.9447848 111.70654676 -41.86914062 105.02807617 C-40.59325335 104.32630484 -39.3024197 103.65120985 -38 103 C-40.68414813 122.74503488 -64.11098435 147.16855007 -79 159 C-86.6205489 164.69636031 -94.52191829 169.66751336 -103 174 C-93.40737189 172.82124485 -84.90749195 169.55526794 -76 166 C-75.01773437 165.608125 -74.03546875 165.21625 -73.0234375 164.8125 C-72.02183594 164.4103125 -72.02183594 164.4103125 -71 164 C-71.57645869 168.90321633 -72.60631075 173.2673411 -74.23046875 177.92578125 C-74.45703659 178.57780518 -74.68360443 179.2298291 -74.91703796 179.90161133 C-75.66513712 182.04176341 -76.4249112 184.17747063 -77.1875 186.3125 C-77.45121399 187.05486908 -77.71492798 187.79723816 -77.9866333 188.56210327 C-87.68194993 215.77660124 -98.89463136 242.25175941 -112 268 C-112.50208984 268.98887207 -113.00417969 269.97774414 -113.52148438 270.99658203 C-123.91470709 291.25226542 -136.36715172 310.53824054 -151 328 C-151.4842041 328.58426758 -151.9684082 329.16853516 -152.46728516 329.77050781 C-162.06740532 341.32763482 -172.18681371 351.66477759 -184 361 C-185.07123058 361.87257203 -186.14151088 362.74631172 -187.2109375 363.62109375 C-213.91069592 385.27980149 -244.62688004 400.7604139 -278 409 C-262.11191836 413.87863054 -238.47318826 410.86405966 -223 406 C-221.96649414 405.67854004 -221.96649414 405.67854004 -220.91210938 405.35058594 C-199.22259236 398.3680657 -181.34232469 385.64985331 -165 370 C-164.67 370.66 -164.34 371.32 -164 372 C-165.14185783 374.58533849 -166.34634438 377.01890351 -167.6875 379.5 C-168.09250732 380.25321533 -168.49751465 381.00643066 -168.91479492 381.7824707 C-187.389043 415.44951725 -214.16356514 441.29390362 -250 456 C-234.1374354 456.57798818 -220.74416097 454.31130404 -208.5625 443.3125 C-207.75941406 442.54550781 -206.95632813 441.77851562 -206.12890625 440.98828125 C-204 439 -204 439 -201 437 C-205.01044413 450.54041702 -214.11687759 461.28004234 -224 471 C-224.8353125 471.83402344 -225.670625 472.66804688 -226.53125 473.52734375 C-256.34765709 501.84324983 -300.90496683 506.43373022 -340 506 C-339.52425537 506.51103271 -339.04851074 507.02206543 -338.55834961 507.54858398 C-327.02126945 520.06619047 -322.7015434 533.40995181 -321 550 C-321.66 550 -322.32 550 -323 550 C-323.46148438 549.14019531 -323.92296875 548.28039062 -324.3984375 547.39453125 C-331.05652957 535.22820777 -338.23620175 523.81847532 -350 516 C-350.99 515.34 -351.98 514.68 -353 514 C-350.11800214 503.99594267 -346.73553536 494.16348632 -343.375 484.3125 C-343.04676239 483.35017456 -342.71852478 482.38784912 -342.38034058 481.3963623 C-327.80766957 438.74340782 -311.94658906 396.55956539 -296.03422832 354.39282608 C-294.58381754 350.54904779 -293.13586758 346.70435408 -291.68994141 342.85888672 C-270.8192846 287.36931085 -248.37295505 232.47942426 -225 178 C-224.69729187 177.29403687 -224.39458374 176.58807373 -224.08270264 175.86071777 C-215.91581858 156.82025607 -207.55197867 137.87073975 -199 119 C-198.54270508 117.99066406 -198.54270508 117.99066406 -198.07617188 116.9609375 C-189.69955591 98.48056826 -181.22866512 80.04542432 -172.53051758 61.71386719 C-171.87837382 60.33921365 -171.22627325 58.96453963 -170.57421875 57.58984375 C-170.26198868 56.93178741 -169.94975861 56.27373108 -169.62806702 55.59573364 C-167.77121811 51.66964418 -165.96818579 47.7241654 -164.20703125 43.75390625 C-163.60169556 42.4090918 -163.60169556 42.4090918 -162.98413086 41.03710938 C-162.27762719 39.46081152 -161.58540104 37.87798002 -160.91235352 36.28710938 C-158.74374565 31.49534331 -156.82674361 29.93076841 -152 28 C-148.6796875 27.58935547 -148.6796875 27.58935547 -144.875 27.4921875 C-137.13019981 27.18800484 -129.45749427 26.50735112 -121.75 25.6953125 C-120.55898682 25.5700116 -119.36797363 25.44471069 -118.14086914 25.31561279 C-115.67301372 25.05390408 -113.20532299 24.79063812 -110.73779297 24.52587891 C-107.03527889 24.12878367 -103.33216845 23.73770631 -99.62890625 23.34765625 C-87.82960058 22.09873147 -76.03530698 20.80474996 -64.25 19.4296875 C-63.24493408 19.31545441 -62.23986816 19.20122131 -61.2043457 19.08352661 C-41.89953481 16.78922661 -20.92400129 11.45109522 -4.1875 1.29296875 C-2 0 -2 0 0 0 Z " fill="#BF2343" transform="translate(1112,319)"/>
<path d="M0 0 C0.99 0 1.98 0 3 0 C3.46672119 0.94129761 3.46672119 0.94129761 3.94287109 1.90161133 C9.55916863 13.21561694 15.17429304 24.52673205 21.12939453 35.66723633 C23.59434302 40.28643789 25.97442496 44.93812238 28.30078125 49.62890625 C28.87256104 50.767229 29.44434082 51.90555176 30.03344727 53.07836914 C31.15628697 55.31654272 32.26545341 57.56164165 33.35913086 59.81420898 C36.21858394 65.47191455 37.85856014 68.6296197 44 71 C44.8828125 72.59838867 44.8828125 72.59838867 45 75 C43.95209632 77.60681979 42.84636218 79.98000685 41.546875 82.45703125 C40.9903701 83.55306923 40.9903701 83.55306923 40.42262268 84.67124939 C39.62448569 86.2400743 38.82095072 87.80616233 38.01260376 89.36975098 C36.31410023 92.65583166 34.64203198 95.95511002 32.96821594 99.2538147 C32.13323128 100.89853351 31.29687809 102.54255827 30.45915222 104.18588257 C25.949829 113.03439351 21.65879598 121.98004053 17.4296875 130.96533203 C16.11300969 133.76012458 14.78985711 136.55178134 13.46517944 139.3427887 C5.36247176 156.42739675 -2.45319389 173.62521378 -10.09280396 190.92153931 C-10.42311615 191.66930634 -10.75342834 192.41707336 -11.09375 193.1875 C-11.58643875 194.30298721 -11.58643875 194.30298721 -12.08908081 195.44100952 C-15.08050337 202.20328698 -18.13722042 208.93504639 -21.19998169 215.66522217 C-29.07722464 232.99275974 -36.59434291 250.46639051 -44 268 C-44.35753357 268.84528259 -44.71506714 269.69056519 -45.08343506 270.5614624 C-83.76381826 362.03289729 -118.99188636 454.88327212 -179.01391602 625.1915741 C-181.12213441 631.42601245 -183.25260038 637.6522134 -185.40625 643.87109375 C-192.78081175 665.19023652 -199.85299202 686.60485186 -206.8125 708.0625 C-207.04766579 708.78724392 -207.28283157 709.51198784 -207.5251236 710.2586937 C-212.83511547 726.63108794 -218.05963667 743.02444291 -223.015625 759.5078125 C-223.3101761 760.48620622 -223.3101761 760.48620622 -223.61067772 761.48436546 C-225.64158246 768.23357858 -227.65250443 774.98830275 -229.6340332 781.75219727 C-230.27810265 783.92205406 -230.92222395 786.09189546 -231.56640625 788.26171875 C-231.9806485 789.70546371 -231.9806485 789.70546371 -232.40325928 791.17837524 C-235.0897936 800.17536752 -238.66284531 808.91726096 -247 814 C-250.4375 814.875 -250.4375 814.875 -253 815 C-251.66358897 808.65453422 -250.03453931 802.49447352 -248.12109375 796.30078125 C-247.83769135 795.37414673 -247.55428894 794.44751221 -247.26229858 793.49279785 C-246.32456283 790.43149746 -245.38134333 787.37192244 -244.4375 784.3125 C-243.76453574 782.12395169 -243.09160349 779.93539353 -242.41870117 777.74682617 C-234.73520096 752.79261096 -226.91495296 727.88170636 -219 703 C-218.61521484 701.79001343 -218.23042969 700.58002686 -217.83398438 699.33337402 C-207.87099971 668.02510641 -197.67076694 636.80457233 -187.125 605.6875 C-186.89011997 604.99429531 -186.65523994 604.30109062 -186.41324234 603.58687973 C-181.36527285 588.69310935 -176.29508017 573.80811471 -171 559 C-190.87757752 558.48190851 -208.12798816 561.8446542 -227 568 C-228.15846436 568.37705078 -228.15846436 568.37705078 -229.34033203 568.76171875 C-233.57036213 570.14519388 -237.78942739 571.55819786 -242 573 C-242 572.34 -242 571.68 -242 571 C-240.67749023 569.81420898 -240.67749023 569.81420898 -238.80859375 568.49609375 C-238.11870361 568.00705566 -237.42881348 567.51801758 -236.71801758 567.01416016 C-235.96544678 566.4938623 -235.21287598 565.97356445 -234.4375 565.4375 C-233.66752686 564.9017334 -232.89755371 564.3659668 -232.10424805 563.81396484 C-218.00708199 554.10126495 -204.04730156 546.97190112 -188 541 C-188.969375 540.56171875 -189.93875 540.1234375 -190.9375 539.671875 C-198.70075567 536.04374721 -205.82313293 532.02488364 -212.6875 526.875 C-213.34556641 526.38483398 -214.00363281 525.89466797 -214.68164062 525.38964844 C-218.71033529 522.28185766 -221.88049875 519.02016031 -225 515 C-224.43796875 515.15855469 -223.8759375 515.31710937 -223.296875 515.48046875 C-220.20288192 516.33938401 -217.10188768 517.17000907 -214 518 C-212.88214111 518.30526611 -212.88214111 518.30526611 -211.74169922 518.61669922 C-198.96756216 522.08517352 -187.28914249 524.05950362 -174 524 C-180.98442164 487.18412915 -195.39205077 454.76770302 -217.453125 424.3359375 C-219 422 -219 422 -219 420 C-204.72266958 425.18940943 -180.97079441 442.05841118 -174 456 C-172.10333658 454.10333658 -172.50636568 450.78894908 -172.2734375 448.25 C-172.13223801 446.78066801 -171.99001555 445.31143407 -171.84692383 443.84228516 C-171.73303818 442.66270233 -171.73303818 442.66270233 -171.61685181 441.45928955 C-163.37356698 357.63678464 -138.22604466 276.11458015 -78 141 C-77.64705872 140.2831604 -77.29411743 139.5663208 -76.93048096 138.82775879 C-68.08493469 120.8719956 -59.1524545 102.99742552 -49.39453125 85.515625 C-47.94197376 82.89532521 -46.51481734 80.26250098 -45.09375 77.625 C-38.3086895 65.04018681 -31.21934508 52.65827165 -23.96386719 40.33935547 C-21.80526052 36.66886542 -19.65579406 32.99311941 -17.5078125 29.31640625 C-16.35971688 27.35254368 -15.21144456 25.38878457 -14.06307983 23.42507935 C-13.3224418 22.15836601 -12.58205801 20.89150398 -11.84194946 19.6244812 C-10.15802414 16.74277106 -8.46847663 13.8648061 -6.76904297 10.9921875 C-5.66769031 9.12934205 -4.57631416 7.26051576 -3.50048828 5.3828125 C-2.41571809 3.53777256 -1.22065699 1.75809421 0 0 Z " fill="#BE2345" transform="translate(907,265)"/>
<path d="M0 0 C0.24076671 5.65801769 -0.5897172 10.52989495 -2 16 C-2.22147705 16.86520264 -2.4429541 17.73040527 -2.67114258 18.62182617 C-7.64832807 37.43031283 -14.88669038 55.34953146 -23 73 C-23.6803833 74.48040771 -23.6803833 74.48040771 -24.37451172 75.99072266 C-75.19101509 185.70696714 -75.19101509 185.70696714 -126 207 C-126.66 207 -127.32 207 -128 207 C-128 207.66 -128 208.32 -128 209 C-129.05324463 209.10957031 -130.10648926 209.21914063 -131.19165039 209.33203125 C-140.85845807 210.34168635 -150.52200275 211.37908152 -160.18359375 212.4375 C-161.3400943 212.56415039 -162.49659485 212.69080078 -163.68814087 212.82128906 C-168.47095914 213.34536606 -173.25372599 213.86990612 -178.03637695 214.39550781 C-186.02327574 215.27284211 -194.01107966 216.14127065 -202 217 C-202.99090637 217.10731445 -203.98181274 217.21462891 -205.00274658 217.32519531 C-207.72135804 217.61790006 -210.44057826 217.9039343 -213.16015625 218.1875 C-213.9326622 218.27136963 -214.70516815 218.35523926 -215.50108337 218.44165039 C-220.02334031 218.90392125 -224.40709597 219.02892382 -228.95140076 218.83325195 C-231.3560054 219.02897746 -232.92204811 219.80971068 -235 221 C-233.48088493 215.96545882 -231.36039171 211.44522422 -229 206.76953125 C-228.60840195 205.98634018 -228.21680389 205.20314911 -227.81333923 204.39622498 C-226.54654414 201.86612381 -225.27362904 199.33916707 -224 196.8125 C-223.12043784 195.06156676 -222.24096219 193.31059006 -221.36157227 191.55957031 C-216.16905165 181.23764013 -210.92668208 170.94736568 -205.47070312 160.76171875 C-203.58642432 157.22337847 -201.72340191 153.67403951 -199.859375 150.125 C-191.64714439 134.50439719 -183.31476517 118.98248786 -174.52685547 103.67578125 C-172.97104724 100.94926091 -171.43765176 98.21122226 -169.91015625 95.46875 C-162.26562592 81.76655891 -154.21441737 68.33957842 -146.02381897 54.96035767 C-143.86018527 51.42181622 -141.72055763 47.87012162 -139.6015625 44.3046875 C-139.08279541 43.43223389 -138.56402832 42.55978027 -138.02954102 41.66088867 C-137.11017068 40.1108569 -136.19355254 38.55918578 -135.28100586 37.00512695 C-134.41079799 35.54036299 -133.51681268 34.08952684 -132.60253906 32.65185547 C-131.3123747 30.51691256 -130.20093897 28.40854178 -129.09277344 26.18017578 C-123.86981533 16.3370923 -123.86981533 16.3370923 -119.08706665 14.10873413 C-114.41585638 12.82465581 -109.66198849 12.66174312 -104.83978271 12.55932617 C-101.07546277 12.47706445 -97.3261774 12.23373285 -93.5687561 11.99890137 C-91.55502495 11.87338865 -89.540809 11.75545047 -87.5262146 11.64465332 C-75.22505791 10.93438005 -63.07033591 9.20620213 -50.875 7.5 C-48.75285607 7.21093333 -46.63062472 6.92250769 -44.50830078 6.63476562 C-30.64220981 4.73697654 -16.82339071 2.58202442 -3.01370239 0.31164551 C-1 0 -1 0 0 0 Z " fill="#E05F2C" transform="translate(1190,129)"/>
<path d="M0 0 C3.25950567 2.74378112 4.95150227 6.34743205 6.87890625 10.0625 C7.24770905 10.76233002 7.61651184 11.46216003 7.99649048 12.18319702 C9.19076518 14.45257291 10.37702524 16.72601645 11.5625 19 C12.37569208 20.55308876 13.1892506 22.1059857 14.00317383 23.65869141 C15.21354494 25.96784009 16.42348777 28.27720007 17.63108826 30.58779907 C19.86530986 34.85819783 22.13116378 39.10808474 24.4453125 43.3359375 C25.15772095 44.64691406 25.15772095 44.64691406 25.88452148 45.984375 C26.72896787 47.5337134 27.58213491 49.0783431 28.44555664 50.6171875 C31.07177456 55.47817372 31.07177456 55.47817372 30.72671509 57.98687744 C29.96966961 60.08402027 29.06703173 61.70908358 27.82958984 63.56152344 C27.15070961 64.58742332 27.15070961 64.58742332 26.45811462 65.63404846 C25.96404617 66.36840622 25.46997772 67.10276398 24.9609375 67.859375 C24.19161644 69.01837563 24.19161644 69.01837563 23.40675354 70.20079041 C22.30609343 71.85840281 21.20305035 73.5144349 20.09786987 75.16903687 C17.20637114 79.50067663 14.33602868 83.84628573 11.46484375 88.19140625 C10.89832596 89.04809402 10.33180817 89.9047818 9.74812317 90.78742981 C-13.06558817 125.33214462 -33.79195256 161.3782967 -53.32421875 197.87060547 C-55.11764489 201.21969291 -56.91787143 204.56507072 -58.71875 207.91015625 C-66.59274056 222.54804694 -74.35216695 237.24267082 -82 252 C-89.57183607 248.72906231 -92.85986651 245.15057398 -96.33984375 237.7734375 C-96.79170547 236.8711441 -97.2435672 235.96885071 -97.7091217 235.03921509 C-99.14325371 232.16259357 -100.5410416 229.27006715 -101.9375 226.375 C-102.86930437 224.48577354 -103.80353192 222.59774022 -104.74023438 220.7109375 C-106.13267213 217.90429233 -107.52217297 215.09650217 -108.89950562 212.28240967 C-112.39216301 205.15379517 -116.04608543 198.12215294 -119.83152771 191.1446228 C-121.54837524 187.94493485 -123.00252571 184.9923988 -124.15209961 181.53271484 C-124.72016021 178.84567556 -124.72016021 178.84567556 -127 178 C-118.77280934 163.98563084 -110.13132023 150.29139879 -101.15606689 136.74517822 C-99.91668785 134.87423344 -98.67878358 133.0023175 -97.44091797 131.13037109 C-81.75493018 107.42248373 -65.780795 83.95124367 -49 61 C-48.43571289 60.2270459 -47.87142578 59.4540918 -47.29003906 58.65771484 C-36.67971483 44.13879098 -25.85485681 29.79200225 -14.68432617 15.69873047 C-12.2502068 12.62248144 -9.90534481 9.50382225 -7.625 6.3125 C-5.46110567 3.37488764 -3.35544111 1.57903111 0 0 Z " fill="#DF5B2E" transform="translate(1035,86)"/>
<path d="M0 0 C2.80953655 3.43112021 4.72057775 7.20034018 6.66015625 11.16015625 C7.00617386 11.85775558 7.35219147 12.55535492 7.70869446 13.27409363 C8.44740682 14.76389923 9.18441461 16.25455104 9.91986084 17.74597168 C11.83730581 21.63330175 13.76795942 25.51405001 15.69921875 29.39453125 C16.07685364 30.15373871 16.45448853 30.91294617 16.84356689 31.69515991 C19.61373114 37.25321757 22.45199327 42.77058643 25.375 48.25 C29.03499852 55.1187751 32.57637398 62.04126445 36.0625 69 C36.54058105 69.95165039 37.01866211 70.90330078 37.51123047 71.88378906 C37.95225098 72.76776367 38.39327148 73.65173828 38.84765625 74.5625 C39.23961182 75.34753906 39.63156738 76.13257813 40.03540039 76.94140625 C42.14599745 81.44572273 42.14599745 81.44572273 41.35475159 84.44967651 C40.81092079 85.91487228 40.81092079 85.91487228 40.25610352 87.40966797 C39.64180984 89.08605598 39.64180984 89.08605598 39.0151062 90.79631042 C38.55766022 92.01594986 38.10021423 93.23558929 37.62890625 94.4921875 C37.15490863 95.77627774 36.68179218 97.06069355 36.20950317 98.34541321 C35.19856798 101.09053222 34.18217766 103.83354309 33.16146851 106.57504272 C31.55123637 110.90095682 29.95435572 115.23171482 28.3605957 119.5637207 C28.09556716 120.28398595 27.83053862 121.00425119 27.5574789 121.74634266 C27.02221802 123.20104987 26.48699148 124.65576972 25.95179939 126.11050224 C25.14672588 128.29761865 24.34053145 130.48431892 23.53404236 132.6709137 C19.17851789 144.48378829 14.89475711 156.32092996 10.6875 168.1875 C10.37300903 169.07428436 10.05851807 169.96106873 9.73449707 170.87472534 C1.3529586 194.53547779 -6.85997641 218.25520548 -15 242 C-15.42190613 243.23071228 -15.84381226 244.46142456 -16.27850342 245.72943115 C-28.2304293 280.60964078 -39.89170133 315.56736631 -50.97149658 350.73620605 C-52.06421217 354.20376724 -53.15866592 357.67077655 -54.25341797 361.13769531 C-57.96182007 372.88364299 -61.66362299 384.63165034 -65.35546875 396.3828125 C-65.6756749 397.40063812 -65.99588104 398.41846375 -66.32579041 399.46713257 C-67.73586909 403.95331757 -69.1391922 408.44113074 -70.51489258 412.93798828 C-70.74247757 413.67846405 -70.97006256 414.41893982 -71.20454407 415.18185425 C-71.79126814 417.09453746 -72.37339949 419.00862792 -72.95507812 420.92285156 C-75.53558559 428.5220843 -79.7782151 434.20963973 -87 438 C-88.32 438 -89.64 438 -91 438 C-89.66358897 431.65453422 -88.03453931 425.49447352 -86.12109375 419.30078125 C-85.83769135 418.37414673 -85.55428894 417.44751221 -85.26229858 416.49279785 C-84.32456283 413.43149746 -83.38134333 410.37192244 -82.4375 407.3125 C-81.76453574 405.12395169 -81.09160349 402.93539353 -80.41870117 400.74682617 C-72.73520096 375.79261096 -64.91495296 350.88170636 -57 326 C-56.61521484 324.79001343 -56.23042969 323.58002686 -55.83398438 322.33337402 C-45.87099971 291.02510641 -35.67076694 259.80457233 -25.125 228.6875 C-24.89011997 227.99429531 -24.65523994 227.30109062 -24.41324234 226.58687973 C-19.36527285 211.69310935 -14.29508017 196.80811471 -9 182 C-28.87757752 181.48190851 -46.12798816 184.8446542 -65 191 C-65.77230957 191.25136719 -66.54461914 191.50273438 -67.34033203 191.76171875 C-71.57036213 193.14519388 -75.78942739 194.55819786 -80 196 C-80 195.34 -80 194.68 -80 194 C-78.67749023 192.81420898 -78.67749023 192.81420898 -76.80859375 191.49609375 C-75.77375854 190.76253662 -75.77375854 190.76253662 -74.71801758 190.01416016 C-73.96544678 189.4938623 -73.21287598 188.97356445 -72.4375 188.4375 C-71.66752686 187.9017334 -70.89755371 187.3659668 -70.10424805 186.81396484 C-56.00708199 177.10126495 -42.04730156 169.97190112 -26 164 C-26.969375 163.56171875 -27.93875 163.1234375 -28.9375 162.671875 C-36.70075567 159.04374721 -43.82313293 155.02488364 -50.6875 149.875 C-51.34556641 149.38483398 -52.00363281 148.89466797 -52.68164062 148.38964844 C-56.71033529 145.28185766 -59.88049875 142.02016031 -63 138 C-62.43796875 138.15855469 -61.8759375 138.31710937 -61.296875 138.48046875 C-58.20288192 139.33938401 -55.10188768 140.17000907 -52 141 C-51.25476074 141.20351074 -50.50952148 141.40702148 -49.74169922 141.61669922 C-36.96756216 145.08517352 -25.28914249 147.05950362 -12 147 C-18.98442164 110.18412915 -33.39205077 77.76770302 -55.453125 47.3359375 C-57 45 -57 45 -57 43 C-42.72266958 48.18940943 -18.97079441 65.05841118 -12 79 C-10.10333658 77.10333658 -10.50636568 73.78894908 -10.2734375 71.25 C-10.13143955 69.77750027 -9.98848871 68.30509221 -9.84472656 66.83276367 C-9.76871216 66.04598236 -9.69269775 65.25920105 -9.61437988 64.44857788 C-7.49513322 42.77114848 -3.90466619 21.41804879 0 0 Z " fill="#872F7D" transform="translate(745,642)"/>
<path d="M0 0 C0.33 0.66 0.66 1.32 1 2 C-0.14185783 4.58533849 -1.34634438 7.01890351 -2.6875 9.5 C-3.09250732 10.25321533 -3.49751465 11.00643066 -3.91479492 11.7824707 C-22.389043 45.44951725 -49.16356514 71.29390362 -85 86 C-69.1374354 86.57798818 -55.74416097 84.31130404 -43.5625 73.3125 C-42.75941406 72.54550781 -41.95632813 71.77851562 -41.12890625 70.98828125 C-39 69 -39 69 -36 67 C-40.01044413 80.54041702 -49.11687759 91.28004234 -59 101 C-59.8353125 101.83402344 -60.670625 102.66804687 -61.53125 103.52734375 C-91.34765709 131.84324983 -135.90496683 136.43373022 -175 136 C-174.52425537 136.51103271 -174.04851074 137.02206543 -173.55834961 137.54858398 C-162.02126945 150.06619047 -157.7015434 163.40995181 -156 180 C-156.66 180 -157.32 180 -158 180 C-158.46148438 179.14019531 -158.92296875 178.28039062 -159.3984375 177.39453125 C-166.05652957 165.22820777 -173.23620175 153.81847532 -185 146 C-185.99 145.34 -186.98 144.68 -188 144 C-185.11798408 133.99587998 -181.73481826 124.16378395 -178.375 114.3125 C-178.05407379 113.37077942 -177.73314758 112.42905884 -177.40249634 111.45880127 C-172.33230708 96.60425768 -167.13666294 81.79598009 -161.82183838 67.02719116 C-161.06645558 64.92807238 -160.31282969 62.82832052 -159.56097412 60.72793579 C-158.50900313 57.79293613 -157.4492379 54.86088247 -156.38671875 51.9296875 C-156.07277664 51.05155899 -155.75883453 50.17343048 -155.43537903 49.26869202 C-155.14305893 48.46830002 -154.85073883 47.66790802 -154.54956055 46.84326172 C-154.29724167 46.145466 -154.04492279 45.44767029 -153.78495789 44.72872925 C-153 43 -153 43 -151 41 C-151 41.66 -151 42.32 -151 43 C-150.34 42.67 -149.68 42.34 -149 42 C-146.76397099 41.71867828 -144.52152252 41.48771853 -142.27734375 41.28125 C-141.61666397 41.21844849 -140.95598419 41.15564697 -140.27528381 41.09094238 C-137.44506807 40.82191754 -134.61402991 40.5620951 -131.78295898 40.30224609 C-129.71822799 40.11137866 -127.65404514 39.91524908 -125.58984375 39.71875 C-124.35097412 39.60466797 -123.11210449 39.49058594 -121.83569336 39.37304688 C-119.10338031 39.30632638 -119.10338031 39.30632638 -118 38 C-115.36405295 37.78627456 -113.58581252 37.66793865 -111.25219727 38.99072266 C-108.19243368 40.36189476 -105.62516715 40.29408689 -102.27734375 40.3359375 C-101.62395523 40.34431641 -100.97056671 40.35269531 -100.29737854 40.36132812 C-98.17717456 40.38089909 -96.0577795 40.38090424 -93.9375 40.375 C-93.2151416 40.37445618 -92.4927832 40.37391235 -91.74853516 40.37335205 C-80.11335382 40.33296109 -69.15161286 39.50555486 -58 36 C-57.31099609 35.78569336 -56.62199219 35.57138672 -55.91210938 35.35058594 C-34.22259236 28.3680657 -16.34232469 15.64985331 0 0 Z " fill="#862D7C" transform="translate(947,689)"/>
<path d="M0 0 C2.4375 0.375 2.4375 0.375 5 1 C5.99 1 6.98 1 8 1 C8.66 1 9.32 1 10 1 C9.76159393 1.87072899 9.76159393 1.87072899 9.51837158 2.75904846 C8.88391774 5.24557989 8.88391774 5.24557989 8.70605469 8.85522461 C7.99194683 15.5838502 5.75532471 21.89951194 3.703125 28.31640625 C3.26739729 29.6998791 2.83241431 31.08358669 2.39813232 32.46751404 C1.25658001 36.09846194 0.10517225 39.72620811 -1.04846191 43.35333252 C-2.20483042 46.99477659 -3.35210662 50.63908043 -4.5 54.28320312 C-6.58951372 60.91313197 -8.6871731 67.54041854 -10.79260254 74.16531372 C-11.65401176 76.88743432 -12.49706551 79.6146531 -13.3314209 82.34518433 C-13.55303516 83.06651771 -13.77464943 83.78785109 -14.00297928 84.53104305 C-14.42695542 85.91315935 -14.84773017 87.29626339 -15.2646904 88.68051243 C-17.798416 96.91966882 -21.14831299 101.84112017 -28.03515625 106.96875 C-30 108 -30 108 -34 108 C-32.65069433 101.58060053 -30.98937997 95.35421498 -29.05078125 89.08984375 C-28.76109467 88.14408478 -28.47140808 87.19832581 -28.17294312 86.22390747 C-27.22320108 83.12727512 -26.26817506 80.03230604 -25.3125 76.9375 C-24.64743809 74.77729445 -23.98248202 72.61705632 -23.31762695 70.45678711 C-21.92835386 65.94657947 -20.53603369 61.43732611 -19.14160156 56.92871094 C-17.71014369 52.30029234 -16.28251133 47.67072286 -14.85839844 43.04003906 C-13.13752488 37.44511928 -11.41005031 31.85228116 -9.67733765 26.26101685 C-9.01826911 24.13133243 -8.36122 22.001022 -7.70620728 19.87008667 C-6.79321559 16.90237599 -5.87229291 13.93724376 -4.94921875 10.97265625 C-4.67902924 10.08853058 -4.40883972 9.20440491 -4.13046265 8.29348755 C-3.87817902 7.48902191 -3.62589539 6.68455627 -3.3659668 5.85571289 C-3.1491777 5.15523331 -2.93238861 4.45475372 -2.70903015 3.73304749 C-2 2 -2 2 0 0 Z " fill="#3B376F" transform="translate(688,972)"/>
<path d="M0 0 C0.60645138 8.07484603 -1.06643801 14.46627818 -3.76953125 22.03125 C-4.16204071 23.16965332 -4.55455017 24.30805664 -4.95895386 25.48095703 C-6.22987095 29.15885014 -7.52122414 32.82921149 -8.8125 36.5 C-9.68713638 39.02217501 -10.56039939 41.54476322 -11.4309082 44.06835938 C-12.73201323 47.83899314 -14.03365998 51.60942109 -15.34056091 55.37805176 C-18.92020329 65.71099763 -22.35424051 76.08526204 -25.6875 86.5 C-25.91692291 87.21486572 -26.14634583 87.92973145 -26.38272095 88.66625977 C-27.59441827 92.44229561 -28.80076407 96.21998849 -30 100 C-30.66 99.01 -31.32 98.02 -32 97 C-31.34 95.68 -30.68 94.36 -30 93 C-32.33075929 93.95865509 -32.33075929 93.95865509 -34 97 C-34.66 96.01 -35.32 95.02 -36 94 C-38.56282742 93.27034634 -38.56282742 93.27034634 -41 93 C-38.69747569 82.85318819 -35.51312431 73.06517177 -32.23828125 63.203125 C-31.68168669 61.51646114 -31.12547483 59.82967095 -30.56962585 58.14276123 C-29.11853612 53.74234884 -27.66231669 49.34365136 -26.20495605 44.9453125 C-24.71356258 40.44114509 -23.22711835 35.93534512 -21.74023438 31.4296875 C-18.83161515 22.61820331 -15.91756427 13.8085261 -13 5 C-12.01 5 -11.02 5 -10 5 C-9.67 4.01 -9.34 3.02 -9 2 C-5.58420831 -0.58492344 -4.05166877 -1.27856499 0 0 Z " fill="#763C91" transform="translate(728,880)"/>
<path d="M0 0 C1.65 0 3.3 0 5 0 C6.00484204 1.95585325 7.00373805 3.91476237 8 5.875 C8.556875 6.96554688 9.11375 8.05609375 9.6875 9.1796875 C11 12 11 12 11 14 C11.66 14 12.32 14 13 14 C13.2475 13.175 13.495 12.35 13.75 11.5 C15.18704811 7.47626529 17.02354515 3.78020976 19 0 C20.65 0 22.3 0 24 0 C24 7.92 24 15.84 24 24 C22.68 24 21.36 24 20 24 C19.505 17.565 19.505 17.565 19 11 C17.35 14.63 15.7 18.26 14 22 C12.68 22 11.36 22 10 22 C8.35 18.7 6.7 15.4 5 12 C4.67 15.96 4.34 19.92 4 24 C2.68 24 1.36 24 0 24 C0 16.08 0 8.16 0 0 Z " fill="#8B8B90" transform="translate(1242,98)"/>
<path d="M0 0 C-1.18209174 9.47437706 -3.79981042 18.05901231 -7 27 C-8.125 23.25 -8.125 23.25 -7 21 C-7.556875 20.82984375 -8.11375 20.6596875 -8.6875 20.484375 C-13.45149915 18.97148338 -17.77987938 17.1693432 -22.203125 14.8515625 C-24.42143821 13.80027493 -26.56979354 13.30377581 -29 13 C-25.76726918 10.84484612 -22.47672001 9.56114626 -18.875 8.1875 C-13.54155805 6.11627287 -8.54434244 3.85543028 -3.63671875 0.8828125 C-2 0 -2 0 0 0 Z " fill="#D74A49" transform="translate(1112,319)"/>
<path d="M0 0 C1.671549 0.30791692 3.33805547 0.64386903 5 1 C5.99 1 6.98 1 8 1 C8.66 1 9.32 1 10 1 C9.84144531 1.57878906 9.68289063 2.15757812 9.51953125 2.75390625 C8.88204516 5.25835143 8.88204516 5.25835143 8.6875 8.9375 C8.05922259 15.19933152 5.97583146 21.05412579 4 27 C3.87625 26.360625 3.7525 25.72125 3.625 25.0625 C3.41875 24.381875 3.2125 23.70125 3 23 C2.34 22.67 1.68 22.34 1 22 C1.33 21.34 1.66 20.68 2 20 C1.34 20 0.68 20 0 20 C-0.66 20.66 -1.32 21.32 -2 22 C-2.66 20.68 -3.32 19.36 -4 18 C-4.66 18 -5.32 18 -6 18 C-3.52427184 3.52427184 -3.52427184 3.52427184 0 0 Z " fill="#503B7E" transform="translate(688,972)"/>
<path d="M0 0 C4.19469571 0.59924224 8.00999834 1.57499941 12 3 C11.40421223 8.26621606 10.18691204 12.94408019 8.4375 17.9375 C8.20353516 18.62134766 7.96957031 19.30519531 7.72851562 20.00976562 C7.15788171 21.67508501 6.57972902 23.33782493 6 25 C5.34 24.01 4.68 23.02 4 22 C4.66 20.68 5.32 19.36 6 18 C3.66924071 18.95865509 3.66924071 18.95865509 2 22 C1.34 21.01 0.68 20.02 0 19 C-2.56282742 18.27034634 -2.56282742 18.27034634 -5 18 C-1.92482916 5.33029613 -1.92482916 5.33029613 0 0 Z " fill="#673F8D" transform="translate(692,955)"/>
<path d="M0 0 C5.94 0 11.88 0 18 0 C18 1.32 18 2.64 18 4 C15.69 4 13.38 4 11 4 C11 10.6 11 17.2 11 24 C9.68 24 8.36 24 7 24 C7 17.4 7 10.8 7 4 C4.69 4 2.38 4 0 4 C0 2.68 0 1.36 0 0 Z " fill="#868689" transform="translate(1221,98)"/>
<path d="M0 0 C0.556875 0.226875 1.11375 0.45375 1.6875 0.6875 C1.6875 3.3275 1.6875 5.9675 1.6875 8.6875 C-3.0625 10.6875 -3.0625 10.6875 -5.3125 10.6875 C-5.6425 9.3675 -5.9725 8.0475 -6.3125 6.6875 C-7.6325 7.0175 -8.9525 7.3475 -10.3125 7.6875 C-10.3125 7.0275 -10.3125 6.3675 -10.3125 5.6875 C-9.6525 5.6875 -8.9925 5.6875 -8.3125 5.6875 C-7.9825 4.6975 -7.6525 3.7075 -7.3125 2.6875 C-3.19128788 -0.43125512 -3.19128788 -0.43125512 0 0 Z " fill="#702C86" transform="translate(726.3125,879.3125)"/>
<path d="M0 0 C2.97 0.495 2.97 0.495 6 1 C5.67 2.65 5.34 4.3 5 6 C4.360625 6.12375 3.72125 6.2475 3.0625 6.375 C2.0415625 6.684375 2.0415625 6.684375 1 7 C0.67 7.66 0.34 8.32 0 9 C-0.66 9 -1.32 9 -2 9 C-1.34 6.03 -0.68 3.06 0 0 Z M2 1 C2.33 1.66 2.66 2.32 3 3 C3.33 2.34 3.66 1.68 4 1 C3.34 1 2.68 1 2 1 Z " fill="#864B97" transform="translate(718,876)"/>
<path d="M0 0 C0.66 0.33 1.32 0.66 2 1 C1.2884375 1.6496875 1.2884375 1.6496875 0.5625 2.3125 C-1.23686957 4.02309613 -1.23686957 4.02309613 -2 7 C-4.06640625 7.94921875 -4.06640625 7.94921875 -6.5625 8.6875 C-7.80193359 9.06455078 -7.80193359 9.06455078 -9.06640625 9.44921875 C-9.70449219 9.63097656 -10.34257813 9.81273437 -11 10 C-11 9.34 -11 8.68 -11 8 C-9.217871 6.55925285 -7.37339724 5.19489351 -5.5 3.875 C-4.4790625 3.15054688 -3.458125 2.42609375 -2.40625 1.6796875 C-1.6121875 1.12539063 -0.818125 0.57109375 0 0 Z " fill="#AE7EB1" transform="translate(676,828)"/>
<path d="M0 0 C0.33 0.66 0.66 1.32 1 2 C0.06553465 4.03144641 -0.93224776 6.03533587 -2 8 C-4 8 -6 8 -8 8 C-5.36 5.36 -2.72 2.72 0 0 Z " fill="#C496BC" transform="translate(910,756)"/>
<path d="M0 0 C0.33 0.66 0.66 1.32 1 2 C0.06553465 4.03144641 -0.93224776 6.03533587 -2 8 C-3.32 7.34 -4.64 6.68 -6 6 C-4.02 4.02 -2.04 2.04 0 0 Z " fill="#AE6A9F" transform="translate(947,689)"/>
<path d="M0 0 C2 2 2 2 2.125 4.625 C2.08375 5.40875 2.0425 6.1925 2 7 C-0.5 5.6875 -0.5 5.6875 -3 4 C-3 3.01 -3 2.02 -3 1 C-2.01 0.67 -1.02 0.34 0 0 Z " fill="#453777" transform="translate(684,989)"/>
</svg>
