<?xml version="1.0" encoding="UTF-8"?>
<svg version="1.1" xmlns="http://www.w3.org/2000/svg" width="200" height="200">
<path d="M0 0 C2.88664083 2.98362284 2.88664083 2.98362284 2.9765625 6.04296875 C1.38875938 8.13684686 -0.13771551 9.83172381 -2.00138855 11.65583801 C-2.54899143 12.21124085 -3.09659431 12.76664368 -3.66079122 13.3388769 C-5.50842236 15.20653469 -7.37351769 17.05571609 -9.23901367 18.90551758 C-10.56345089 20.23672612 -11.88682124 21.56899685 -13.209198 22.9022522 C-16.81136062 26.52727198 -20.42923754 30.1362219 -24.05074477 33.74190354 C-27.83201835 37.51055149 -31.60111478 41.29134536 -35.37214661 45.07023621 C-41.70795341 51.41514929 -48.05425237 57.7494248 -54.40649414 64.07788086 C-61.75891831 71.40309217 -69.09315572 78.74614303 -76.41820353 86.09872228 C-82.69860901 92.40178981 -88.98867151 98.69509556 -95.28696424 104.98028964 C-99.05269155 108.73820653 -102.81492288 112.499456 -106.56850243 116.26951027 C-110.09731073 119.81272162 -113.63804818 123.34355452 -117.18851852 126.86505508 C-118.49253618 128.16243973 -119.79227746 129.46413833 -121.08747673 130.77032661 C-122.85057638 132.54700497 -124.6282107 134.30769119 -126.41056824 136.0650177 C-126.92487701 136.59048008 -127.43918579 137.11594247 -127.96907967 137.65732795 C-129.42010784 139.0688448 -129.42010784 139.0688448 -132.0234375 141.04296875 C-135.15668234 140.95645105 -135.94609259 140.11189516 -138.3203125 137.99609375 C-158.74780108 115.48682289 -165.39934283 89.84897922 -164.0234375 60.04296875 C-162.35528704 38.51025497 -151.97062568 17.51733991 -137.0234375 2.04296875 C-136.3634375 2.04296875 -135.7034375 2.04296875 -135.0234375 2.04296875 C-135.0234375 1.38296875 -135.0234375 0.72296875 -135.0234375 0.04296875 C-126.42091436 -7.88195839 -116.60014989 -13.15901531 -106.0234375 -17.95703125 C-105.14042969 -18.37855469 -104.25742188 -18.80007812 -103.34765625 -19.234375 C-68.62403588 -34.69951685 -28.08612109 -22.74230159 0 0 Z M-112.0234375 0.04296875 C-112.0234375 0.37296875 -112.0234375 0.70296875 -112.0234375 1.04296875 C-110.89808594 1.1409375 -109.77273437 1.23890625 -108.61328125 1.33984375 C-99.45068732 2.20855476 -90.88668273 3.60448379 -82.0625 6.23828125 C-78.9029446 7.21360933 -78.9029446 7.21360933 -75.0234375 7.04296875 C-72.23146018 4.75114603 -72.23146018 4.75114603 -70.0234375 2.04296875 C-70.0234375 1.38296875 -70.0234375 0.72296875 -70.0234375 0.04296875 C-69.3634375 0.04296875 -68.7034375 0.04296875 -68.0234375 0.04296875 C-66.28261378 -1.63943853 -66.28261378 -1.63943853 -64.5234375 -3.76953125 C-63.61078125 -4.83107422 -63.61078125 -4.83107422 -62.6796875 -5.9140625 C-60.88814606 -8.05911197 -60.88814606 -8.05911197 -59.0234375 -10.95703125 C-78.0878393 -13.75429111 -95.46625767 -9.16696253 -112.0234375 0.04296875 Z M-45.44873047 -5.3581543 C-46.21330566 -4.56965088 -46.97788086 -3.78114746 -47.765625 -2.96875 C-48.60351562 -2.11732422 -49.44140625 -1.26589844 -50.3046875 -0.38867188 C-51.160625 0.51689453 -52.0165625 1.42246094 -52.8984375 2.35546875 C-53.77757813 3.24943359 -54.65671875 4.14339844 -55.5625 5.06445312 C-60.05327705 8.95214987 -60.05327705 8.95214987 -62.0234375 14.04296875 C-61.35699219 14.38328125 -60.69054687 14.72359375 -60.00390625 15.07421875 C-53.6576223 18.41156527 -48.03563005 22.12158355 -42.43359375 26.6015625 C-40.22465796 28.23470935 -40.22465796 28.23470935 -38.1706543 27.91259766 C-35.18856329 26.70484232 -33.50729985 24.86305923 -31.2578125 22.5703125 C-30.36835938 21.67119141 -29.47890625 20.77207031 -28.5625 19.84570312 C-27.64210937 18.90017578 -26.72171875 17.95464844 -25.7734375 16.98046875 C-24.82882077 16.02079902 -23.88351555 15.06180646 -22.9375 14.10351562 C-20.62594578 11.75658047 -18.3216741 9.40293484 -16.0234375 7.04296875 C-19.88618176 2.73597125 -23.7755505 0.29659107 -28.9609375 -2.20703125 C-29.65123047 -2.55765625 -30.34152344 -2.90828125 -31.05273438 -3.26953125 C-38.1815702 -7.06821483 -38.1815702 -7.06821483 -45.44873047 -5.3581543 Z M-115.0234375 14.04296875 C-114.6934375 14.70296875 -114.3634375 15.36296875 -114.0234375 16.04296875 C-113.3634375 16.04296875 -112.7034375 16.04296875 -112.0234375 16.04296875 C-111.7553125 16.64109375 -111.4871875 17.23921875 -111.2109375 17.85546875 C-110.02426344 20.04144729 -108.92744637 21.45629469 -107.0234375 23.04296875 C-106.3634375 23.04296875 -105.7034375 23.04296875 -105.0234375 23.04296875 C-104.7553125 23.68234375 -104.4871875 24.32171875 -104.2109375 24.98046875 C-103.13675998 27.37428561 -103.13675998 27.37428561 -100.0234375 28.04296875 C-99.6934375 28.70296875 -99.3634375 29.36296875 -99.0234375 30.04296875 C-95.42490875 27.26696085 -92.10569424 24.38941892 -89.0234375 21.04296875 C-89.0234375 20.38296875 -89.0234375 19.72296875 -89.0234375 19.04296875 C-88.3634375 18.71296875 -87.7034375 18.38296875 -87.0234375 18.04296875 C-96.42791254 15.52136414 -105.33562987 14.43155301 -115.0234375 14.04296875 Z M-124.0234375 24.04296875 C-124.53147206 33.09351041 -123.01062731 41.27804225 -121.0234375 50.04296875 C-117.99511192 50.3810168 -117.99511192 50.3810168 -116.26953125 48.43359375 C-115.67269531 47.7271875 -115.07585937 47.02078125 -114.4609375 46.29296875 C-113.86152344 45.596875 -113.26210937 44.90078125 -112.64453125 44.18359375 C-111.13615096 42.19180484 -110.10265017 40.28407215 -109.0234375 38.04296875 C-111.33191694 35.70562776 -113.64587091 33.37378409 -115.9609375 31.04296875 C-116.62029297 30.37523437 -117.27964844 29.7075 -117.95898438 29.01953125 C-118.58740234 28.38789062 -119.21582031 27.75625 -119.86328125 27.10546875 C-120.44456787 26.51894531 -121.02585449 25.93242188 -121.62475586 25.328125 C-122.82958778 23.93020352 -122.82958778 23.93020352 -124.0234375 24.04296875 Z M-75.7734375 25.41796875 C-77.22667442 26.96548467 -77.22667442 26.96548467 -77.0234375 29.04296875 C-77.6834375 29.04296875 -78.3434375 29.04296875 -79.0234375 29.04296875 C-79.0234375 29.70296875 -79.0234375 30.36296875 -79.0234375 31.04296875 C-79.6834375 31.04296875 -80.3434375 31.04296875 -81.0234375 31.04296875 C-82.69010417 32.37630208 -82.69010417 32.37630208 -84.0234375 34.04296875 C-84.0234375 34.70296875 -84.0234375 35.36296875 -84.0234375 36.04296875 C-84.6834375 36.04296875 -85.3434375 36.04296875 -86.0234375 36.04296875 C-87.64858218 37.50130233 -87.64858218 37.50130233 -89.0234375 39.04296875 C-88.6934375 40.03296875 -88.3634375 41.02296875 -88.0234375 42.04296875 C-87.3634375 42.04296875 -86.7034375 42.04296875 -86.0234375 42.04296875 C-85.7553125 42.68234375 -85.4871875 43.32171875 -85.2109375 43.98046875 C-84.13675998 46.37428561 -84.13675998 46.37428561 -81.0234375 47.04296875 C-80.32192598 48.35830285 -79.65817825 49.69414467 -79.0234375 51.04296875 C-77.6067628 52.79412605 -77.6067628 52.79412605 -76.0234375 54.04296875 C-75.3634375 54.04296875 -74.7034375 54.04296875 -74.0234375 54.04296875 C-73.7759375 54.68234375 -73.5284375 55.32171875 -73.2734375 55.98046875 C-72.20266231 58.12648702 -72.20266231 58.12648702 -70.3046875 59.015625 C-67.72194406 59.29366716 -67.72194406 59.29366716 -65.2890625 56.76171875 C-64.27184206 55.70018376 -63.26722685 54.6264708 -62.2734375 53.54296875 C-61.21293349 52.43168554 -60.15043021 51.3223068 -59.0859375 50.21484375 C-58.56773438 49.67150391 -58.04953125 49.12816406 -57.515625 48.56835938 C-54.53528364 45.52170151 -51.2918787 42.77307845 -48.0234375 40.04296875 C-49.52028126 35.60300651 -52.97585205 33.80688215 -56.7734375 31.48046875 C-57.381875 31.09439453 -57.9903125 30.70832031 -58.6171875 30.31054688 C-66.91004205 24.27690118 -66.91004205 24.27690118 -75.7734375 25.41796875 Z M-139.0234375 27.04296875 C-148.18491562 44.72256276 -150.72261991 60.17453533 -150.0234375 80.04296875 C-145.88628047 77.34980559 -142.32952318 74.73800568 -139.0234375 71.04296875 C-139.0234375 70.38296875 -139.0234375 69.72296875 -139.0234375 69.04296875 C-138.3634375 69.04296875 -137.7034375 69.04296875 -137.0234375 69.04296875 C-134.17035292 67.10828164 -134.17035292 67.10828164 -132.0234375 64.04296875 C-132.0234375 60.12455293 -132.80791704 56.91676367 -133.7421875 53.12890625 C-135.48479628 45.96678418 -136.44408193 39.21995824 -136.71484375 31.84375 C-136.7429923 28.90647258 -136.7429923 28.90647258 -139.0234375 27.04296875 Z M-101.7409668 51.41992188 C-102.66002808 52.36254883 -102.66002808 52.36254883 -103.59765625 53.32421875 C-104.59829102 54.33935547 -104.59829102 54.33935547 -105.61914062 55.375 C-106.65458008 56.44814453 -106.65458008 56.44814453 -107.7109375 57.54296875 C-108.41283203 58.25839844 -109.11472656 58.97382812 -109.83789062 59.7109375 C-111.57330111 61.48176452 -113.3013448 63.25920331 -115.0234375 65.04296875 C-113.60082291 69.88134026 -111.56287019 73.91987376 -109.0234375 78.23046875 C-108.48976563 79.15375977 -108.48976563 79.15375977 -107.9453125 80.09570312 C-106.37461623 82.80046555 -104.75890719 85.43976421 -103.0234375 88.04296875 C-102.3634375 88.04296875 -101.7034375 88.04296875 -101.0234375 88.04296875 C-101.0234375 88.70296875 -101.0234375 89.36296875 -101.0234375 90.04296875 C-97.55713915 88.55643369 -95.33321714 86.58574524 -92.6953125 83.91015625 C-91.89609375 83.10449219 -91.096875 82.29882812 -90.2734375 81.46875 C-89.4484375 80.62699219 -88.6234375 79.78523438 -87.7734375 78.91796875 C-86.93296875 78.06847656 -86.0925 77.21898438 -85.2265625 76.34375 C-83.15428067 74.24791952 -81.08681357 72.14756162 -79.0234375 70.04296875 C-81.25347482 64.99186753 -85.09818866 61.63873101 -88.9609375 57.79296875 C-90.05438477 56.67535156 -90.05438477 56.67535156 -91.16992188 55.53515625 C-91.87310547 54.83132812 -92.57628906 54.1275 -93.30078125 53.40234375 C-93.94265381 52.75749023 -94.58452637 52.11263672 -95.24584961 51.44824219 C-97.74224745 49.47471301 -99.24378525 49.41791705 -101.7409668 51.41992188 Z M-134.69873047 84.25830078 C-136.13550755 85.65539591 -137.59310583 87.03097346 -139.05078125 88.40625 C-139.95183594 89.28925781 -140.85289062 90.17226562 -141.78125 91.08203125 C-142.6180127 91.88850098 -143.45477539 92.6949707 -144.31689453 93.52587891 C-146.33699008 95.96442394 -146.33699008 95.96442394 -145.87939453 99.14038086 C-143.34841534 107.72304248 -138.53279128 116.03106394 -133.0234375 123.04296875 C-127.58610695 118.51305079 -122.55884819 113.70002659 -117.5859375 108.66796875 C-116.85439453 107.93191406 -116.12285156 107.19585937 -115.36914062 106.4375 C-113.58491027 104.64160801 -111.80307626 102.8434089 -110.0234375 101.04296875 C-111.30814573 97.42815245 -112.80533368 94.84189355 -115.2734375 91.91796875 C-119.24164951 86.98474082 -122.15298738 81.66820983 -125.0234375 76.04296875 C-128.20937484 76.04296875 -132.49091207 82.0972486 -134.69873047 84.25830078 Z " fill="#121212" transform="translate(164.0234375,24.95703125)"/>
<path d="M0 0 C0 0.66 0 1.32 0 2 C0.66 2 1.32 2 2 2 C21.42762276 24.61375289 28.17554296 50.69759144 27 80 C26.63530943 84.10392298 25.9596255 87.99604534 25 92 C24.75507813 93.08023438 24.51015625 94.16046875 24.2578125 95.2734375 C21.43618998 106.3851368 16.44995273 117.48038138 10 127 C9.34 127 8.68 127 8 127 C7.73316406 127.58265625 7.46632812 128.1653125 7.19140625 128.765625 C-2.16510863 146.31292504 -23.80486306 157.34268851 -42 163 C-66.22954987 170.06286474 -94.35184562 166.70243633 -116.37133789 154.68530273 C-125.36694533 149.5625674 -132.74391303 143.34442194 -140 136 C-139.67 135.01 -139.34 134.02 -139 133 C-138.34 133 -137.68 133 -137 133 C-137 132.34 -137 131.68 -137 131 C-135.3203125 129.37890625 -135.3203125 129.37890625 -133.125 127.5625 C-130.53806278 125.41599116 -128.88815626 123.83223438 -127 121 C-126.34 121 -125.68 121 -125 121 C-125 120.34 -125 119.68 -125 119 C-122.625 116.375 -122.625 116.375 -120 114 C-119.34 114 -118.68 114 -118 114 C-118 113.34 -118 112.68 -118 112 C-116.3203125 110.37890625 -116.3203125 110.37890625 -114.125 108.5625 C-111.53806278 106.41599116 -109.88815626 104.83223438 -108 102 C-107.34 102 -106.68 102 -106 102 C-106 101.34 -106 100.68 -106 100 C-104.390625 98.44921875 -104.390625 98.44921875 -102.25 96.6875 C-99.08464796 94.00056672 -96.52493188 91.30853143 -94 88 C-91.375 85.1875 -91.375 85.1875 -89 83 C-88.34 83 -87.68 83 -87 83 C-87 82.34 -87 81.68 -87 81 C-85.3203125 79.37890625 -85.3203125 79.37890625 -83.125 77.5625 C-80.53806278 75.41599116 -78.88815626 73.83223438 -77 71 C-76.34 71 -75.68 71 -75 71 C-75 70.34 -75 69.68 -75 69 C-72.625 66.375 -72.625 66.375 -70 64 C-69.34 64 -68.68 64 -68 64 C-68 63.34 -68 62.68 -68 62 C-66.3203125 60.37890625 -66.3203125 60.37890625 -64.125 58.5625 C-61.53806278 56.41599116 -59.88815626 54.83223438 -58 52 C-57.34 52 -56.68 52 -56 52 C-56 51.34 -56 50.68 -56 50 C-54.390625 48.44921875 -54.390625 48.44921875 -52.25 46.6875 C-49.08464796 44.00056672 -46.52493188 41.30853143 -44 38 C-41.375 35.1875 -41.375 35.1875 -39 33 C-38.34 33 -37.68 33 -37 33 C-37 32.34 -37 31.68 -37 31 C-35.3203125 29.37890625 -35.3203125 29.37890625 -33.125 27.5625 C-30.53806278 25.41599116 -28.88815626 23.83223438 -27 21 C-26.34 21 -25.68 21 -25 21 C-25 20.34 -25 19.68 -25 19 C-22.625 16.375 -22.625 16.375 -20 14 C-19.34 14 -18.68 14 -18 14 C-18 13.34 -18 12.68 -18 12 C-16.3203125 10.37890625 -16.3203125 10.37890625 -14.125 8.5625 C-11.53806278 6.41599116 -9.88815626 4.83223438 -8 2 C-7.34 2 -6.68 2 -6 2 C-6 1.34 -6 0.68 -6 0 C-3.50907189 -1.24546405 -2.58919267 -0.7767578 0 0 Z M-8.15478516 19.92773438 C-9.02409668 20.80751953 -9.8934082 21.68730469 -10.7890625 22.59375 C-11.25234955 23.05986694 -11.7156366 23.52598389 -12.19296265 24.00622559 C-13.67505459 25.4995339 -15.15005198 26.99963837 -16.625 28.5 C-17.62714533 29.51217325 -18.62974388 30.52389798 -19.6328125 31.53515625 C-22.09382662 34.01824993 -24.548523 36.50748617 -27 39 C-25.73594878 41.62885232 -24.36886845 44.05412281 -22.72265625 46.4609375 C-22.29146484 47.09773438 -21.86027344 47.73453125 -21.41601562 48.390625 C-20.51854875 49.70639174 -19.62012135 51.02150387 -18.72070312 52.3359375 C-16.16812807 56.10964012 -13.94086208 59.86205642 -12 64 C-11.34 64 -10.68 64 -10 64 C-10 63.34 -10 62.68 -10 62 C-9.34 62 -8.68 62 -8 62 C-8 61.34 -8 60.68 -8 60 C-7.34 60 -6.68 60 -6 60 C-4.33333333 58.66666667 -4.33333333 58.66666667 -3 57 C-3 56.34 -3 55.68 -3 55 C-2.34 55 -1.68 55 -1 55 C0.66666667 53.66666667 0.66666667 53.66666667 2 52 C2 51.34 2 50.68 2 50 C2.66 50 3.32 50 4 50 C4 49.34 4 48.68 4 48 C4.66 48 5.32 48 6 48 C7.81104764 46.94032404 7.81104764 46.94032404 9 45 C8.63573943 39.70238439 6.57191825 35.57218593 4.1875 30.9375 C3.84396484 30.24333984 3.50042969 29.54917969 3.14648438 28.83398438 C1.13601168 24.86207491 -0.9434882 21.28719193 -4 18 C-6.23344603 17.77774986 -6.23344603 17.77774986 -8.15478516 19.92773438 Z M-40.1640625 51.8984375 C-40.97617188 52.71570313 -41.78828125 53.53296875 -42.625 54.375 C-43.44226563 55.18710938 -44.25953125 55.99921875 -45.1015625 56.8359375 C-47.21982158 58.77078597 -47.21982158 58.77078597 -47 61 C-47.58265625 61.25523438 -48.1653125 61.51046875 -48.765625 61.7734375 C-51.21388223 63.11741087 -52.81743248 64.61810296 -54.75 66.625 C-55.67039062 67.57246094 -55.67039062 67.57246094 -56.609375 68.5390625 C-57.06828125 69.02117187 -57.5271875 69.50328125 -58 70 C-55.96197865 74.06024321 -55.96197865 74.06024321 -52 76 C-51.33333333 77.33333333 -50.66666667 78.66666667 -50 80 C-49.01 80.33 -48.02 80.66 -47 81 C-47 81.66 -47 82.32 -47 83 C-46.34 83 -45.68 83 -45 83 C-44.731875 83.639375 -44.46375 84.27875 -44.1875 84.9375 C-43.11332248 87.33131686 -43.11332248 87.33131686 -40 88 C-39.67 88.99 -39.34 89.98 -39 91 C-36.89968321 91.21531408 -36.89968321 91.21531408 -35.375 89.625 C-33.78468592 88.10031679 -33.78468592 88.10031679 -34 86 C-33.34 86 -32.68 86 -32 86 C-30.33333333 84.66666667 -30.33333333 84.66666667 -29 83 C-29 82.34 -29 81.68 -29 81 C-28.34 81 -27.68 81 -27 81 C-27 80.34 -27 79.68 -27 79 C-26.34 79 -25.68 79 -25 79 C-23.18895236 77.94032404 -23.18895236 77.94032404 -22 76 C-22.7371745 66.73266337 -29.66285943 56.67067428 -36 50 C-38.22921403 49.78017842 -38.22921403 49.78017842 -40.1640625 51.8984375 Z M7 65 C5.78840304 66.46667 4.57810099 67.93497661 3.40625 69.43359375 C1.80513728 71.21705542 0.04560235 72.50848039 -1.875 73.9375 C-3.67379702 75.38279274 -3.67379702 75.38279274 -5 77 C-5.11804344 79.89206428 -4.82912145 81.30658181 -4 84 C-3.50643176 85.95475332 -3.02903047 87.91361797 -2.5625 89.875 C-2.29953125 90.97972656 -2.0365625 92.08445312 -1.765625 93.22265625 C-0.37478198 100.08462155 0.29145606 107.0395978 1 114 C13.11600956 98.68817343 13.66759567 79.5694303 13 61 C10.72471275 61 8.57402651 63.64061347 7 65 Z M-73.0625 84.875 C-73.98160156 85.77992187 -74.90070313 86.68484375 -75.84765625 87.6171875 C-78.22343596 89.71219806 -78.22343596 89.71219806 -78 92 C-78.58265625 92.25523438 -79.1653125 92.51046875 -79.765625 92.7734375 C-82.21388223 94.11741087 -83.81743248 95.61810296 -85.75 97.625 C-86.67039063 98.57246094 -86.67039063 98.57246094 -87.609375 99.5390625 C-88.06828125 100.02117187 -88.5271875 100.50328125 -89 101 C-87.71034824 102.37562854 -86.37310707 103.70766393 -85 105 C-84.34 105 -83.68 105 -83 105 C-83 105.66 -83 106.32 -83 107 C-80.41989804 108.48505869 -77.83622441 109.96317311 -75.25 111.4375 C-74.52039063 111.85837891 -73.79078125 112.27925781 -73.0390625 112.71289062 C-72.33007812 113.11572266 -71.62109375 113.51855469 -70.890625 113.93359375 C-70.24125977 114.30540771 -69.59189453 114.67722168 -68.92285156 115.06030273 C-66.84439498 116.07604415 -65.31798769 116.81664355 -63 117 C-60.96202557 115.65480056 -60.96202557 115.65480056 -59.109375 113.59765625 C-58.40039062 112.87255859 -57.69140625 112.14746094 -56.9609375 111.40039062 C-56.23132813 110.62888672 -55.50171875 109.85738281 -54.75 109.0625 C-54.00492188 108.29486328 -53.25984375 107.52722656 -52.4921875 106.73632812 C-50.64980263 104.83489246 -48.8200352 102.92279952 -47 101 C-51.22958034 95.95179121 -55.64199586 91.20353723 -60.3125 86.5625 C-61.26092773 85.60827148 -61.26092773 85.60827148 -62.22851562 84.63476562 C-62.82986328 84.03470703 -63.43121094 83.43464844 -64.05078125 82.81640625 C-64.59387939 82.27443604 -65.13697754 81.73246582 -65.6965332 81.17407227 C-68.750563 78.42321456 -70.77197953 82.60058727 -73.0625 84.875 Z M-17 89 C-18.20569617 90.44013709 -19.40871205 91.88266046 -20.59375 93.33984375 C-22.59058004 95.69721254 -24.81658266 97.81658266 -27 100 C-27.33 100.66 -27.66 101.32 -28 102 C-27.34 102 -26.68 102 -26 102 C-25.731875 102.639375 -25.46375 103.27875 -25.1875 103.9375 C-24.11332248 106.33131686 -24.11332248 106.33131686 -21 107 C-20.29848848 108.3153341 -19.63474075 109.65117592 -19 111 C-17.5833253 112.7511573 -17.5833253 112.7511573 -16 114 C-15.34 114 -14.68 114 -14 114 C-13.67 114.66 -13.34 115.32 -13 116 C-12.61591205 106.51160514 -13.44596137 98.15197174 -16 89 C-16.33 89 -16.66 89 -17 89 Z M-99 111 C-102.13949141 114.09015221 -105.27243757 117.18674696 -108.39941406 120.28955078 C-109.4646826 121.34474509 -110.53173697 122.39813964 -111.60058594 123.44970703 C-113.13426216 124.95919727 -114.66145568 126.47498699 -116.1875 127.9921875 C-117.10917969 128.90339355 -118.03085938 129.81459961 -118.98046875 130.75341797 C-121.22284235 132.74441812 -121.22284235 132.74441812 -121 135 C-109.4140713 144.24174305 -109.4140713 144.24174305 -95.63574219 147.81054688 C-92.28935678 146.78146207 -90.7907885 145.24768071 -88.35546875 142.74609375 C-87.51435547 141.89208984 -86.67324219 141.03808594 -85.80664062 140.15820312 C-84.94232422 139.26037109 -84.07800781 138.36253906 -83.1875 137.4375 C-82.30384766 136.53580078 -81.42019531 135.63410156 -80.50976562 134.70507812 C-78.33057938 132.47877434 -76.16127083 130.24367741 -74 128 C-78.04972648 124.91779059 -82.30615125 122.21025875 -86.60351562 119.4921875 C-90.83969805 116.79433523 -94.93305913 113.94736048 -99 111 Z M-41.48046875 113.1875 C-42.82044922 114.5796875 -42.82044922 114.5796875 -44.1875 116 C-45.53908203 117.3921875 -45.53908203 117.3921875 -46.91796875 118.8125 C-47.60503906 119.534375 -48.29210937 120.25625 -49 121 C-46.22374333 123.77625667 -43.16880401 123.96262582 -39.4375 124.625 C-38.35855469 124.82283081 -38.35855469 124.82283081 -37.2578125 125.0246582 C-32.10279763 125.92272217 -27.23894042 126.28065752 -22 126 C-25.27799025 122.0664117 -28.6324602 118.24896457 -32.1875 114.5625 C-32.84105469 113.88316406 -33.49460937 113.20382813 -34.16796875 112.50390625 C-37.2676702 109.95937521 -38.59593776 110.64366165 -41.48046875 113.1875 Z M-63.10644531 134.52294922 C-63.83959961 135.27592285 -64.57275391 136.02889648 -65.328125 136.8046875 C-66.52695313 138.02091797 -66.52695313 138.02091797 -67.75 139.26171875 C-68.575 140.12410156 -69.4 140.98648438 -70.25 141.875 C-71.09046875 142.72964844 -71.9309375 143.58429688 -72.796875 144.46484375 C-76.75970728 147.80176307 -76.75970728 147.80176307 -79 152 C-63.71425669 152.42273719 -50.89751377 151.23924031 -36.4375 146.0625 C-35.75776123 145.82192871 -35.07802246 145.58135742 -34.37768555 145.33349609 C-30.41787101 143.83470405 -27.7460159 142.23512815 -25 139 C-26.4540625 138.96132812 -26.4540625 138.96132812 -27.9375 138.921875 C-38.45027055 138.51977608 -49.11630748 137.24049962 -58.9375 133.20361328 C-61.15120198 132.75505579 -61.15120198 132.75505579 -63.10644531 134.52294922 Z " fill="#1FA13B" transform="translate(173,34)"/>
</svg>
